<?xml version="1.0" standalone="no"?>
<!DOCTYPE svg PUBLIC "-//W3C//DTD SVG 20010904//EN"
 "http://www.w3.org/TR/2001/REC-SVG-20010904/DTD/svg10.dtd">
<svg version="1.0" xmlns="http://www.w3.org/2000/svg"
 width="730.000000pt" height="650.000000pt" viewBox="0 0 730.000000 650.000000"
 preserveAspectRatio="xMidYMid meet">

<g transform="translate(0.000000,650.000000) scale(0.100000,-0.100000)"
fill="#000000" stroke="none">
<path d="M4718 5873 c7 -3 16 -2 19 1 4 3 -2 6 -13 5 -11 0 -14 -3 -6 -6z"/>
<path d="M4238 5849 c-18 -10 -24 -55 -10 -75 12 -18 41 -24 67 -14 38 15 31
32 -10 24 -25 -4 -35 -3 -35 6 0 10 17 11 70 6 61 -5 70 -4 70 10 0 13 -7 15
-35 11 -26 -4 -35 -2 -35 8 0 15 -30 35 -52 35 -7 0 -21 -5 -30 -11z m45 -26
c-7 -2 -19 -2 -25 0 -7 3 -2 5 12 5 14 0 19 -2 13 -5z"/>
<path d="M4428 5852 c-20 -4 -32 -37 -26 -73 5 -39 26 -34 30 8 2 26 8 39 20
41 13 2 17 -5 20 -34 4 -51 26 -56 30 -7 2 27 8 39 21 41 13 3 17 -4 17 -31 0
-32 19 -55 34 -40 12 13 5 71 -10 84 -15 12 -100 19 -136 11z"/>
<path d="M4594 5845 c-3 -8 -4 -20 -2 -27 3 -7 7 -1 10 15 6 29 1 36 -8 12z"/>
<path d="M4633 5828 c2 -30 5 -33 37 -34 34 -1 34 -1 3 3 -26 3 -33 9 -37 34
-6 28 -6 27 -3 -3z"/>
<path d="M4798 5849 c-13 -7 -18 -23 -18 -55 0 -56 23 -56 28 -1 2 28 8 37 22
37 14 0 20 -9 22 -37 4 -44 28 -58 29 -16 0 26 1 27 9 6 11 -27 51 -39 79 -23
33 17 25 32 -14 24 -23 -4 -35 -2 -35 5 0 6 17 11 40 11 22 0 40 5 40 10 0 16
-38 50 -56 50 -25 0 -54 -20 -55 -38 0 -14 -2 -14 -6 -2 -13 36 -52 49 -85 29z
m155 -26 c-7 -2 -19 -2 -25 0 -7 3 -2 5 12 5 14 0 19 -2 13 -5z"/>
<path d="M4990 5856 c0 -2 9 -25 21 -51 15 -34 18 -50 10 -58 -17 -17 -13 -27
10 -27 15 0 26 14 45 55 13 31 24 63 24 71 0 24 -23 11 -39 -22 l-15 -29 -9
33 c-7 21 -16 32 -28 32 -11 0 -19 -2 -19 -4z"/>
<path d="M1161 5638 c-120 -117 -144 -149 -134 -183 6 -23 495 -523 529 -542
48 -27 82 -7 204 117 129 132 300 314 332 355 l21 27 -84 84 c-46 46 -88 84
-93 84 -5 0 -17 -6 -25 -14 -14 -12 -30 -8 -119 26 -56 22 -108 38 -116 35 -7
-3 -24 -35 -37 -72 l-23 -66 -120 120 c-185 182 -177 181 -335 29z m301 -45
c76 -76 138 -140 138 -144 0 -3 -53 47 -117 112 l-118 118 -137 -132 -137
-132 215 -220 214 -219 103 102 c56 56 109 102 117 102 7 0 27 -12 42 -27 l28
-27 -97 -98 c-81 -81 -103 -98 -128 -98 -26 0 -63 33 -288 265 -218 224 -257
269 -252 288 9 32 234 247 259 247 13 0 70 -49 158 -137z m97 -247 c-16 -43
-27 -82 -24 -86 2 -4 43 -22 91 -40 l86 -32 -95 -96 -96 -96 -203 208 -203
209 125 124 125 123 112 -117 111 -118 -29 -79z m83 91 c-36 -95 -67 -174 -69
-176 -2 -3 -8 0 -13 5 -7 7 3 44 28 110 22 54 51 131 66 171 18 48 32 70 40
67 10 -4 -4 -50 -52 -177z m202 118 l37 -16 -30 -38 c-17 -21 -38 -44 -47 -52
-15 -13 -16 -11 -9 11 4 14 10 30 12 36 2 6 -5 14 -16 17 -16 4 -24 -7 -50
-78 -17 -45 -42 -92 -55 -104 -21 -20 -17 -6 28 114 56 149 49 143 130 110z
m241 -147 c0 -3 -58 -68 -129 -143 l-129 -136 -53 52 c-29 29 -52 55 -52 58 1
3 -3 15 -7 25 -6 15 -2 25 19 43 15 12 23 23 18 23 -5 0 -19 -11 -32 -25 -22
-23 -23 -28 -11 -48 13 -21 12 -20 -13 2 l-26 25 27 30 c15 17 75 79 132 138
l105 107 75 -72 c42 -39 76 -75 76 -79z m-306 43 c-7 -22 -20 -48 -30 -57 -16
-15 -16 -11 2 37 24 62 29 72 36 66 2 -3 -1 -23 -8 -46z m-72 -238 c-8 -7 -67
20 -67 31 0 26 14 25 42 -1 15 -14 26 -28 25 -30z"/>
<path d="M1197 5592 c-10 -10 -17 -24 -17 -30 0 -7 -7 -12 -15 -12 -8 0 -15
-4 -15 -10 0 -5 4 -10 8 -10 10 0 72 63 72 73 0 13 -17 7 -33 -11z"/>
<path d="M1670 5095 c-26 -31 18 -71 47 -42 19 19 8 57 -16 57 -10 0 -24 -7
-31 -15z m48 -12 c5 -17 -26 -29 -40 -15 -6 6 -7 15 -3 22 9 14 37 9 43 -7z"/>
<path d="M1327 5452 c-53 -53 -97 -105 -97 -113 0 -26 79 -109 104 -109 25 0
216 186 216 211 0 19 -91 109 -111 109 -8 0 -58 -44 -112 -98z m143 13 c22
-24 23 -26 7 -42 -16 -16 -19 -16 -44 9 -22 23 -24 29 -13 42 17 21 23 20 50
-9z m-48 -32 c35 -32 9 -83 -27 -53 -16 13 -20 1 -15 -45 2 -18 -2 -16 -31 10
-18 17 -28 23 -22 15 12 -16 15 -70 3 -70 -3 0 -16 10 -28 23 l-22 23 38 37
c21 21 41 34 45 31 4 -4 7 -1 7 7 0 14 18 39 29 39 2 0 13 -7 23 -17z"/>
<path d="M1392 5408 c6 -18 28 -21 28 -4 0 9 -7 16 -16 16 -9 0 -14 -5 -12
-12z"/>
<path d="M1893 5328 c-68 -72 -120 -135 -116 -141 3 -5 64 50 135 124 71 74
127 128 123 122 -4 -8 1 -13 11 -13 13 0 14 -3 4 -15 -17 -21 -34 -19 -25 3 5
14 4 15 -6 4 -11 -10 -10 -15 2 -27 14 -14 17 -13 34 5 18 20 18 21 -5 45 -13
14 -26 25 -29 24 -3 -1 -61 -60 -128 -131z"/>
<path d="M1866 5244 c-38 -41 -66 -77 -62 -81 9 -9 157 138 150 149 -9 14 -17
8 -88 -68z"/>
<path d="M1754 5258 l-19 -23 23 19 c21 18 27 26 19 26 -2 0 -12 -10 -23 -22z"/>
<path d="M3925 5665 c-100 -16 -446 -67 -710 -104 -110 -16 -211 -32 -225 -35
-14 -3 -106 -17 -205 -31 -99 -13 -288 -40 -420 -60 -132 -19 -241 -35 -242
-35 -2 0 -3 -22 -3 -48 0 -107 -57 -249 -135 -338 l-43 -50 20 -152 20 -152
-59 -76 c-32 -42 -65 -86 -73 -98 -8 -11 -70 -94 -137 -183 -131 -172 -135
-184 -108 -251 55 -131 196 -151 279 -39 17 23 21 44 22 110 2 92 -1 85 144
312 38 61 75 121 80 134 6 12 25 46 44 75 18 28 50 79 71 114 21 34 41 62 44
62 3 0 49 7 101 15 52 8 101 15 109 15 17 0 9 -34 -24 -105 -13 -27 -60 -131
-104 -230 -45 -99 -91 -200 -104 -225 -20 -39 -22 -52 -15 -99 19 -124 131
-186 237 -131 59 30 85 90 76 179 -6 58 -3 80 18 142 13 41 30 99 37 129 7 30
17 63 22 73 5 10 18 53 29 95 20 80 58 192 68 204 5 6 223 38 228 34 3 -2 -19
-189 -52 -445 -24 -190 0 -278 89 -320 53 -26 79 -26 133 0 75 36 99 94 82
201 -15 97 -37 581 -27 594 8 11 215 40 224 31 2 -2 25 -89 50 -193 26 -104
54 -218 64 -254 10 -36 21 -92 24 -124 13 -119 61 -171 161 -171 70 0 114 26
141 83 20 43 13 172 -12 210 -8 13 -27 54 -41 90 -13 37 -28 72 -33 77 -4 6
-19 37 -33 70 -14 33 -43 102 -65 152 -22 51 -37 95 -32 98 5 3 57 12 117 20
101 14 109 13 121 -3 12 -15 73 -108 269 -409 45 -69 62 -105 67 -142 16 -121
125 -187 229 -137 61 30 82 69 82 151 l0 70 -160 184 c-88 101 -186 214 -217
250 -32 36 -58 71 -58 77 0 6 47 16 114 24 98 11 118 11 134 -1 11 -8 130
-114 265 -236 l244 -221 7 -54 c14 -104 89 -174 178 -164 59 6 102 37 129 92
17 35 19 53 13 103 -4 39 -11 61 -19 61 -7 0 -54 30 -104 68 -50 37 -152 112
-227 167 -190 140 -192 142 -204 206 -8 44 -50 342 -50 355 0 2 -101 4 -224 4
-223 0 -225 0 -253 24 -25 21 -28 31 -31 100 -5 88 5 84 -137 61z m-351 -417
c22 -35 -11 -46 -229 -78 -115 -17 -244 -36 -287 -42 -86 -12 -108 -8 -108 22
0 30 25 37 225 65 99 14 218 32 265 39 103 17 120 16 134 -6z"/>
<path d="M4606 4363 c2 -10 40 -274 84 -588 45 -313 82 -570 83 -572 2 -1 29
7 60 19 43 16 56 25 53 37 -3 9 -17 99 -30 201 -43 317 -126 884 -130 885 0 1
-21 6 -46 12 -25 7 -53 15 -62 18 -12 5 -16 2 -12 -12z"/>
<path d="M2820 4033 c-84 -16 -100 -26 -100 -58 0 -42 23 -50 102 -37 39 7 72
11 74 10 1 -2 72 -144 157 -316 142 -287 154 -316 145 -343 -14 -41 -1 -97 29
-125 38 -35 82 -31 328 31 119 30 256 62 306 70 49 9 96 18 104 21 20 8 19 53
-1 61 -30 11 -271 -40 -574 -122 -80 -22 -117 -20 -126 7 -8 28 12 43 85 63
31 9 103 31 161 49 58 18 161 50 230 71 161 48 208 65 219 79 5 6 11 124 12
262 3 209 2 254 -11 268 -16 20 -6 21 -225 -18 -77 -13 -219 -38 -315 -55 -96
-17 -213 -37 -260 -46 -129 -23 -125 -24 -161 48 -54 107 -51 105 -179 80z
m1060 -191 l0 -89 -57 -13 c-31 -8 -77 -14 -102 -14 l-46 -1 -13 79 c-8 46 -9
83 -4 88 10 10 140 35 190 37 l32 1 0 -88z m-253 -47 c6 -44 10 -81 8 -83 -11
-11 -208 -43 -216 -35 -12 12 -34 161 -25 170 10 10 145 32 186 30 l34 -2 13
-80z m-280 33 c4 -7 12 -46 19 -86 13 -86 18 -82 -116 -105 -70 -12 -82 -12
-92 1 -23 27 -77 147 -70 154 6 6 195 43 239 47 6 1 15 -5 20 -11z m528 -198
l0 -75 -65 -22 c-96 -32 -95 -32 -108 41 -20 105 -22 100 66 118 111 23 107
25 107 -62z m-230 30 c3 -5 12 -44 19 -85 12 -68 12 -77 -3 -84 -32 -17 -193
-63 -199 -57 -10 10 -40 181 -33 188 6 7 164 44 198 47 6 1 15 -3 18 -9z
m-243 -139 c16 -78 17 -96 6 -106 -12 -11 -92 -35 -117 -35 -12 0 -101 171
-101 194 0 10 18 18 53 25 28 5 61 12 72 15 11 2 31 3 44 3 22 -2 26 -10 43
-96z"/>
<path d="M6244 3995 c-69 -41 -74 -61 -80 -332 -9 -354 5 -426 93 -469 32 -15
72 -19 255 -22 360 -7 419 4 475 87 23 33 23 38 23 341 0 303 0 308 -23 341
-12 18 -38 44 -56 56 -33 23 -38 23 -340 23 l-306 0 -41 -25z m536 -294 c0
-28 -4 -53 -10 -56 -6 -4 -10 15 -10 49 0 31 5 56 10 56 6 0 10 -22 10 -49z
m29 5 c-4 -41 -3 -43 18 -33 27 12 77 -6 98 -37 26 -36 19 -94 -14 -127 -39
-39 -82 -39 -121 0 -30 29 -50 25 -50 -10 0 -15 -9 -18 -60 -18 -50 1 -66 5
-90 26 -25 20 -30 32 -30 67 0 75 51 117 117 95 20 -6 39 -22 49 -40 l15 -30
24 30 c19 21 25 41 25 75 0 27 5 46 11 46 7 0 10 -16 8 -44z m-402 -34 c3 -30
1 -32 -18 -21 -43 23 -99 -12 -99 -61 0 -32 36 -64 66 -58 26 5 29 28 5 28
-37 0 -22 20 17 22 l37 1 -37 4 c-56 6 -46 23 12 23 l50 0 0 -49 c0 -61 -22
-81 -91 -81 -113 0 -158 125 -73 200 31 27 42 31 82 28 45 -3 47 -4 49 -36z
m162 -1 c7 -5 10 -14 7 -20 -4 -6 -12 -9 -17 -6 -5 3 -6 -1 -3 -9 4 -11 0 -16
-13 -16 -32 0 -43 -21 -43 -82 0 -78 -19 -74 -22 5 l-2 62 -3 -62 c-5 -87 -23
-79 -23 10 0 63 3 76 23 94 34 32 70 41 96 24z"/>
<path d="M6815 3640 c-3 -6 1 -7 9 -4 18 7 21 14 7 14 -6 0 -13 -4 -16 -10z"/>
<path d="M6621 3606 c-8 -9 -11 -26 -7 -41 5 -20 13 -25 37 -25 29 0 30 2 27
38 -2 29 -8 38 -24 40 -11 2 -26 -4 -33 -12z"/>
<path d="M6805 3590 c-23 -24 -26 -33 -16 -43 10 -9 11 -9 6 4 -10 25 12 33
25 9 7 -14 19 -20 33 -18 18 2 22 10 22 38 0 47 -30 52 -70 10z"/>
<path d="M6582 3575 c0 -16 2 -22 5 -12 2 9 2 23 0 30 -3 6 -5 -1 -5 -18z"/>
<path d="M6754 3578 l-19 -23 23 19 c12 11 22 21 22 23 0 8 -8 2 -26 -19z"/>
<path d="M6348 3683 c6 -2 18 -2 25 0 6 3 1 5 -13 5 -14 0 -19 -2 -12 -5z"/>
<path d="M6279 3653 c-13 -16 -12 -17 4 -4 9 7 17 15 17 17 0 8 -8 3 -21 -13z"/>
<path d="M6260 3561 c0 -6 4 -13 10 -16 6 -3 7 1 4 9 -7 18 -14 21 -14 7z"/>
<path d="M6333 3503 c9 -2 25 -2 35 0 9 3 1 5 -18 5 -19 0 -27 -2 -17 -5z"/>
<path d="M2165 3990 c-16 -11 -40 -20 -52 -20 -33 0 -37 46 52 -590 14 -102
32 -221 39 -265 8 -44 22 -147 32 -229 18 -147 18 -149 -1 -160 -42 -24 -85
-74 -85 -101 0 -15 35 -84 85 -167 47 -77 85 -144 85 -150 0 -5 10 -22 21 -38
l22 -29 -32 -55 c-17 -31 -31 -63 -31 -72 0 -17 46 -100 110 -199 21 -33 39
-63 39 -67 1 -4 -11 -8 -26 -10 -25 -3 -28 -7 -28 -43 1 -38 38 -313 71 -518
8 -54 26 -178 39 -275 37 -276 65 -455 77 -484 6 -15 28 -44 49 -63 48 -43 74
-44 264 -14 72 11 207 31 300 44 94 14 278 41 410 60 132 20 330 49 440 65
110 16 308 45 440 65 132 19 321 47 420 61 211 29 255 46 286 106 12 23 21 59
21 82 1 37 -108 834 -118 864 -3 10 -10 9 -31 -5 -16 -11 -41 -25 -57 -31 -23
-10 -27 -17 -23 -38 3 -17 -1 -28 -15 -35 -12 -7 -17 -17 -13 -28 4 -15 -4
-22 -36 -35 -45 -18 -59 -12 -59 28 0 15 -5 17 -32 12 -18 -3 -235 -35 -483
-71 -247 -37 -556 -82 -685 -101 -934 -138 -1071 -157 -1077 -150 -4 3 -17 79
-29 169 -13 89 -26 176 -29 192 -5 30 -5 30 13 9 24 -28 55 -44 86 -44 13 0
37 -7 53 -15 15 -9 40 -20 55 -25 18 -6 43 -36 79 -95 97 -159 84 -161 474 61
171 97 321 186 334 200 42 40 33 74 -58 222 l-81 133 32 17 c18 9 45 30 60 45
30 31 53 39 178 67 47 10 148 37 225 60 77 23 176 52 220 65 136 40 205 66
205 78 -1 29 -60 308 -69 325 -6 11 -18 22 -28 24 -10 3 -117 -15 -238 -39
-338 -66 -626 -121 -666 -127 -30 -3 -41 0 -60 20 -28 30 -75 32 -130 4 -22
-12 -44 -18 -48 -15 -5 2 -59 86 -120 185 -61 98 -121 186 -133 195 -44 30
-75 19 -305 -111 -123 -70 -227 -123 -231 -119 -4 3 -45 274 -92 601 l-85 594
-30 -20z m816 -1197 c56 -93 104 -171 106 -175 4 -7 -609 -358 -625 -358 -18
0 -222 339 -209 347 31 20 613 352 619 352 3 1 52 -74 109 -166z m-433 35 c-3
-7 -11 -13 -18 -13 -7 0 -15 6 -17 13 -3 7 4 12 17 12 13 0 20 -5 18 -12z
m1522 -209 c0 -6 -9 -48 -19 -93 -11 -44 -22 -98 -25 -118 -8 -44 -10 -45 -66
-54 l-43 -7 6 29 c4 16 9 38 12 49 4 14 -6 37 -34 73 l-39 53 5 -59 c5 -55 4
-60 -22 -80 -21 -16 -41 -22 -81 -22 -50 0 -56 3 -73 31 -21 35 -35 119 -22
132 4 4 27 10 49 11 22 2 44 6 48 9 13 8 123 27 155 27 20 0 30 -6 35 -22 l8
-23 6 25 c6 27 42 50 78 50 12 0 22 -5 22 -11z m-453 -45 c18 -18 24 -32 20
-52 -3 -17 2 -35 14 -51 40 -50 13 -104 -59 -120 -48 -10 -46 -12 -121 120
-43 77 -41 96 12 109 23 6 47 13 52 15 28 10 59 2 82 -21z m-418 -214 c18 -32
19 -40 7 -40 -18 0 -60 56 -51 70 11 18 21 11 44 -30z m-52 -34 c-16 -12 -15
-14 13 -19 33 -7 39 -27 14 -51 -16 -17 -54 -22 -54 -8 0 5 10 14 23 20 21 10
20 11 -11 11 -36 1 -51 23 -32 46 7 8 24 15 39 15 24 -1 25 -2 8 -14z m93 -25
c0 -14 -18 -23 -30 -16 -6 4 -8 11 -5 16 8 12 35 12 35 0z m-152 -23 c17 -17
15 -23 -14 -37 -15 -6 -24 -14 -21 -17 3 -3 14 0 26 7 30 19 40 1 12 -22 -29
-23 -49 -24 -73 -2 -20 18 -23 36 -8 64 12 22 59 26 78 7z m-108 -49 c0 -5 -7
-9 -15 -9 -8 0 -15 -4 -15 -9 0 -5 9 -7 20 -4 25 7 51 -13 43 -33 -9 -24 -88
-57 -115 -48 -19 6 -21 5 -11 -8 12 -14 8 -28 -8 -28 -9 0 -69 93 -69 108 0
23 27 12 40 -15 l13 -28 9 28 c5 15 13 27 17 27 16 0 19 -13 10 -37 -9 -25 -9
-26 27 -20 50 8 68 27 26 27 -25 0 -32 4 -32 19 0 11 10 27 22 35 21 15 38 13
38 -5z m-146 -119 l19 -32 -24 -19 c-13 -10 -32 -19 -41 -19 -17 0 -58 49 -58
69 0 21 27 11 38 -14 6 -14 16 -25 21 -25 19 0 22 21 7 44 -15 24 -11 39 8 33
6 -2 19 -18 30 -37z m-131 -5 c1 -6 -8 -14 -20 -20 -34 -15 -28 -25 13 -22 26
1 39 -3 48 -16 9 -15 6 -22 -17 -43 -29 -25 -61 -31 -72 -14 -4 6 7 15 24 21
41 14 40 29 -2 22 -63 -10 -75 44 -16 74 26 14 40 13 42 -2z m753 -80 c25 -42
45 -77 43 -79 -13 -12 -630 -358 -633 -355 -2 2 -22 35 -46 73 -25 42 -38 72
-32 78 7 7 604 351 619 357 1 1 23 -33 49 -74z m-156 -305 c11 -11 20 -27 20
-35 0 -22 -45 -65 -69 -65 -18 0 -61 42 -61 60 0 4 9 19 21 34 25 31 61 34 89
6z m640 -510 c129 -66 140 -244 20 -330 -37 -26 -116 -36 -163 -21 -53 18
-114 92 -123 148 -22 151 134 271 266 203z"/>
<path d="M2920 2745 c0 -8 9 -19 20 -25 15 -8 20 -8 20 3 0 14 -19 37 -32 37
-4 0 -8 -7 -8 -15z"/>
<path d="M2883 2721 c4 -17 1 -21 -16 -21 -18 0 -19 2 -7 10 9 6 10 10 3 10
-6 0 -14 -4 -17 -9 -10 -16 5 -41 25 -41 18 0 24 15 20 48 -1 6 3 12 9 12 6 0
9 -4 6 -8 -2 -4 0 -14 5 -22 8 -12 9 -9 7 10 -2 15 -10 26 -22 28 -15 3 -18 0
-13 -17z"/>
<path d="M2804 2688 c-4 -6 -3 -8 4 -4 5 3 13 0 15 -6 3 -8 6 -6 6 5 1 19 -14
23 -25 5z"/>
<path d="M2777 2673 c-4 -3 -7 -15 -7 -25 0 -11 -4 -17 -8 -14 -4 2 -8 -4 -8
-15 0 -10 4 -19 8 -19 4 0 8 6 8 14 0 8 8 13 17 12 10 0 19 7 21 17 2 10 -3
17 -13 17 -9 0 -13 5 -10 10 7 11 2 13 -8 3z m23 -33 c0 -5 -4 -10 -10 -10 -5
0 -10 5 -10 10 0 6 5 10 10 10 6 0 10 -4 10 -10z"/>
<path d="M2733 2645 c-3 -9 -3 -18 -1 -21 3 -3 8 4 11 16 6 23 -1 27 -10 5z"/>
<path d="M2700 2610 c0 -11 -4 -20 -10 -20 -5 0 -10 5 -10 10 0 6 -7 10 -15
10 -8 0 -15 -5 -15 -11 0 -5 3 -8 8 -6 7 5 33 -17 29 -25 -1 -2 3 2 9 9 6 7
19 13 28 13 10 0 14 5 11 10 -4 6 -11 8 -16 5 -5 -3 -6 1 -3 9 3 9 1 16 -5 16
-6 0 -11 -9 -11 -20z"/>
<path d="M2615 2581 c-4 -7 0 -8 11 -4 14 5 16 2 10 -20 -5 -21 -3 -25 8 -21
10 4 12 12 7 27 -9 24 -26 33 -36 18z"/>
<path d="M2581 2565 c0 -13 28 -50 33 -44 3 2 -4 15 -14 29 -11 14 -20 21 -19
15z"/>
<path d="M2546 2541 c-4 -5 -2 -12 3 -15 5 -4 12 -2 15 3 4 5 2 12 -3 15 -5 4
-12 2 -15 -3z"/>
<path d="M2513 2510 c-3 -11 -12 -20 -20 -20 -8 0 -11 5 -7 12 4 7 3 8 -4 4
-23 -14 -11 -25 28 -24 42 0 59 11 39 24 -8 4 -9 3 -5 -4 4 -7 2 -12 -3 -12
-10 0 -15 14 -12 33 2 16 -11 6 -16 -13z"/>
<path d="M2435 2479 c-4 -6 2 -13 14 -16 22 -6 27 -18 11 -26 -6 -3 -5 -4 2
-3 22 4 21 27 -2 33 -16 4 -18 8 -8 14 9 6 9 9 1 9 -6 0 -15 -5 -18 -11z"/>
<path d="M2405 2461 c-3 -5 -1 -12 5 -16 5 -3 10 1 10 9 0 18 -6 21 -15 7z"/>
<path d="M3550 2424 c0 -8 5 -12 10 -9 6 3 10 10 10 16 0 5 -4 9 -10 9 -5 0
-10 -7 -10 -16z"/>
<path d="M3037 2263 c-12 -12 -7 -22 8 -17 8 4 15 10 15 15 0 11 -14 12 -23 2z"/>
<path d="M3848 3165 c-29 -16 -41 -44 -40 -87 1 -39 18 -66 54 -84 96 -50 186
80 109 157 -33 33 -78 38 -123 14z"/>
<path d="M5044 3143 l-71 -24 -7 -127 c-4 -70 -9 -174 -12 -232 -2 -58 -6
-129 -9 -158 l-5 -52 136 111 c74 61 137 109 139 107 2 -2 10 -86 16 -186 7
-100 14 -180 16 -179 3 4 19 110 33 217 20 161 40 306 47 334 7 36 10 37 -119
-70 -57 -47 -116 -95 -132 -106 -27 -20 -28 -20 -23 -2 3 10 15 80 27 154 12
74 25 158 30 185 4 28 8 51 7 51 -1 1 -34 -10 -73 -23z"/>
<path d="M3274 3070 c-33 -13 -54 -50 -54 -95 1 -43 13 -65 47 -83 63 -34 143
12 143 83 0 47 -13 71 -50 90 -32 17 -54 18 -86 5z"/>
<path d="M1750 2850 l0 -120 25 0 c21 0 25 5 25 29 0 16 6 34 14 40 11 9 20 3
46 -29 21 -27 40 -40 56 -40 13 0 24 2 24 5 0 3 -16 27 -35 54 -19 26 -35 53
-35 59 0 6 17 24 37 41 l38 31 -36 0 c-26 0 -43 -8 -64 -30 -16 -16 -32 -30
-37 -30 -4 0 -8 25 -8 55 0 52 -1 55 -25 55 l-25 0 0 -120z"/>
<path d="M1014 2895 c-28 -28 -33 -88 -9 -122 21 -30 75 -46 109 -34 20 8 26
7 26 -3 0 -28 -29 -40 -70 -29 -62 16 -87 -25 -29 -46 54 -19 88 -14 120 18
28 29 29 32 29 134 l0 104 -76 1 c-67 1 -78 -1 -100 -23z m110 -31 c23 -22 20
-61 -5 -74 -54 -30 -106 34 -59 72 27 22 44 23 64 2z"/>
<path d="M1249 2891 c-72 -73 6 -184 106 -151 68 22 86 93 39 149 -22 26 -33
31 -71 31 -36 0 -50 -6 -74 -29z m105 -27 c31 -30 9 -84 -34 -84 -23 0 -50 26
-50 47 0 23 29 53 51 53 10 0 25 -7 33 -16z"/>
<path d="M1450 2810 l0 -110 -25 0 c-20 0 -25 -5 -25 -25 0 -22 4 -25 34 -25
59 0 66 16 66 151 l0 119 -25 0 -25 0 0 -110z"/>
<path d="M1556 2894 c-30 -31 -35 -86 -11 -121 23 -34 86 -47 130 -29 59 25
40 49 -32 39 -28 -4 -42 -1 -52 11 -12 14 -6 16 58 16 l71 0 0 30 c0 75 -107
110 -164 54z m104 -29 c11 -13 6 -15 -35 -15 -41 0 -46 2 -35 15 7 8 23 15 35
15 12 0 28 -7 35 -15z"/>
<path d="M1242 2374 c-29 -7 -62 -19 -73 -24 -21 -12 -17 -30 6 -30 7 0 16 -8
18 -17 3 -12 5 -8 6 9 1 38 20 45 43 17 l19 -24 -7 28 c-6 24 -3 27 20 27 18
0 30 -7 36 -22 7 -18 9 -19 9 -5 1 23 30 34 42 16 5 -8 9 -25 9 -38 0 -18 -3
-21 -13 -12 -8 6 -17 8 -20 4 -6 -6 -20 -8 -82 -16 -25 -3 -55 -27 -55 -45 0
-11 8 -13 28 -8 73 17 158 18 197 2 49 -21 115 -65 115 -78 0 -6 -23 -7 -55
-3 l-55 7 0 -37 c0 -39 15 -75 31 -75 6 0 8 9 4 20 -6 18 -2 20 49 20 31 0 59
0 64 1 4 0 13 -24 21 -54 18 -68 4 -145 -37 -206 -26 -38 -86 -91 -104 -91 -4
0 -8 22 -8 49 0 39 6 56 30 86 17 21 30 41 30 46 0 13 -18 20 -25 9 -18 -29
-33 -3 -55 91 -13 55 -28 102 -32 105 -18 11 -20 -32 -4 -78 13 -38 15 -56 7
-86 -9 -32 -19 -42 -63 -63 -29 -14 -59 -24 -65 -22 -24 9 -13 49 22 83 33 32
34 36 18 47 -9 7 -34 13 -55 13 -29 0 -38 4 -39 18 0 14 -2 14 -9 -3 -7 -18
-9 -16 -15 13 -4 17 -11 32 -16 32 -5 0 -24 -14 -44 -31 -19 -17 -35 -28 -35
-24 0 4 -7 1 -17 -6 -15 -13 -16 -11 -10 24 3 20 4 37 2 37 -2 0 -10 3 -19 6
-10 4 -16 1 -16 -10 0 -12 -7 -14 -30 -9 -17 3 -30 1 -30 -4 0 -5 10 -9 23 -9
21 1 22 -2 19 -54 -2 -30 -5 -56 -7 -58 -1 -2 -14 -4 -28 -5 -32 -2 -40 17 -9
21 12 2 22 7 22 12 0 5 -10 10 -22 12 -20 3 -23 8 -20 43 2 22 7 55 12 72 11
44 -5 52 -20 10 -38 -107 -18 -251 50 -355 124 -192 397 -240 580 -103 114 86
165 190 165 336 0 82 -3 96 -35 160 -18 39 -34 75 -34 80 -1 6 -7 14 -13 18
-7 4 -13 15 -13 23 0 8 -4 12 -10 9 -5 -3 -10 -1 -10 6 0 7 -3 10 -6 6 -4 -3
-21 4 -38 17 -102 77 -227 102 -344 70z m183 -26 c3 -3 -1 -11 -10 -18 -8 -7
-15 -18 -15 -24 0 -6 11 2 23 18 26 32 47 29 47 -7 0 -20 0 -20 14 -1 14 18
16 18 32 2 15 -14 16 -22 6 -43 -12 -25 -32 -34 -32 -14 0 5 -4 8 -10 4 -5 -3
-17 2 -27 12 -11 11 -29 17 -45 15 -22 -3 -28 1 -28 17 0 10 -3 26 -6 35 -4
11 1 14 20 12 14 -1 28 -5 31 -8z m-228 -344 c-3 -3 -12 -4 -19 -1 -8 3 -5 6
6 6 11 1 17 -2 13 -5z m93 -8 c0 -3 -4 -8 -10 -11 -5 -3 -10 -1 -10 4 0 6 5
11 10 11 6 0 10 -2 10 -4z m-85 -111 c6 -71 8 -75 33 -81 15 -3 31 -7 35 -7 4
-1 19 -21 33 -45 23 -39 24 -42 6 -42 -38 0 -111 32 -150 66 -35 29 -103 140
-91 147 12 7 96 35 110 36 14 1 18 -13 24 -74z m475 -84 c0 -16 -13 -20 -31
-10 -10 5 -16 16 -13 24 5 11 11 12 25 4 10 -5 19 -13 19 -18z m-36 -20 c4 -5
-6 -23 -20 -40 -20 -24 -29 -29 -39 -21 -11 9 -12 7 -8 -8 7 -27 -12 -36 -31
-16 -15 14 -14 17 6 34 18 14 26 16 37 7 11 -9 13 -9 8 0 -4 7 0 21 10 33 19
22 29 25 37 11z m-110 -98 c7 -16 -11 -36 -25 -27 -4 2 -9 -2 -11 -8 -3 -8 -9
-4 -17 10 -10 19 -10 23 1 21 26 -3 39 1 33 11 -3 6 -2 10 3 10 6 0 13 -8 16
-17z m-60 -39 c6 -15 -36 -30 -53 -19 -6 3 -11 1 -11 -5 0 -6 -8 -10 -17 -8
-10 1 -24 -1 -30 -5 -8 -5 -13 -3 -13 5 0 9 -3 9 -10 -2 -7 -11 -10 -8 -9 15
0 17 3 24 6 18 3 -9 10 -10 23 -3 10 5 25 7 33 5 7 -3 19 1 26 9 14 16 47 10
55 -10z m-157 -40 c-9 -10 -27 15 -21 31 7 17 8 16 16 -5 5 -13 7 -24 5 -26z"/>
<path d="M1310 2220 c0 -6 7 -10 15 -10 8 0 15 2 15 4 0 2 -7 6 -15 10 -8 3
-15 1 -15 -4z"/>
<path d="M1235 2200 c3 -5 10 -10 16 -10 5 0 9 5 9 10 0 6 -7 10 -16 10 -8 0
-12 -4 -9 -10z"/>
<path d="M4975 2149 l-51 -20 11 -72 11 -72 49 -5 c28 -3 56 -9 64 -14 10 -7
12 -2 7 20 -3 16 -8 52 -11 79 -9 76 -16 105 -23 104 -4 0 -30 -9 -57 -20z"/>
<path d="M4960 1873 c0 -15 4 -34 9 -42 8 -12 12 -13 26 -1 24 20 16 64 -12
68 -19 3 -23 -1 -23 -25z"/>
<path d="M2002 1678 c3 -7 19 -17 37 -22 43 -12 117 -79 143 -129 11 -23 23
-70 26 -104 6 -77 22 -84 22 -10 0 108 -50 194 -144 247 -53 31 -91 39 -84 18z"/>
<path d="M1990 1627 c0 -7 15 -18 33 -25 42 -15 96 -67 114 -110 7 -18 14 -53
15 -78 0 -30 5 -44 14 -44 23 0 17 79 -10 135 -28 59 -66 98 -118 119 -45 19
-48 19 -48 3z"/>
<path d="M1980 1571 c0 -5 17 -18 38 -28 41 -21 82 -88 82 -135 0 -15 5 -28
10 -28 20 0 11 86 -13 121 -34 51 -117 101 -117 70z"/>
<path d="M1970 1515 c0 -8 6 -15 13 -15 21 0 49 -35 56 -71 8 -38 31 -52 31
-19 0 36 -31 90 -61 105 -35 19 -39 19 -39 0z"/>
<path d="M1960 1466 c0 -7 7 -19 15 -26 8 -7 15 -19 15 -26 0 -8 5 -14 10 -14
13 0 13 26 0 49 -12 24 -40 35 -40 17z"/>
<path d="M1870 1445 c-13 -15 -12 -18 38 -87 30 -42 36 -46 53 -35 25 16 25
19 -17 82 -38 57 -53 65 -74 40z"/>
<path d="M1821 1383 c-37 -134 160 -412 283 -401 l36 3 -38 57 c-20 32 -43 58
-50 58 -32 0 -132 143 -132 188 0 23 -67 132 -81 132 -4 0 -13 -17 -18 -37z"/>
<path d="M2095 1126 c-18 -13 -17 -16 14 -64 43 -67 52 -74 75 -57 18 14 17
16 -13 64 -43 66 -53 74 -76 57z"/>
</g>
</svg>
