<?xml version="1.0" encoding="utf-8"?>
<!-- Generator: Adobe Illustrator 16.0.0, SVG Export Plug-In . SVG Version: 6.00 Build 0)  -->
<!DOCTYPE svg PUBLIC "-//W3C//DTD SVG 1.1//EN" "http://www.w3.org/Graphics/SVG/1.1/DTD/svg11.dtd">
<svg version="1.1" id="Layer_1" xmlns="http://www.w3.org/2000/svg" xmlns:xlink="http://www.w3.org/1999/xlink" x="0px" y="0px"
	 width="177.334px" height="159.333px" viewBox="0 0 177.334 159.333" enable-background="new 0 0 177.334 159.333"
	 xml:space="preserve">
<g>
	<path d="M57.791,138.023c1.26-0.21,2.909-0.39,5.01-0.39c2.579,0,4.47,0.6,5.669,1.68c1.11,0.96,1.771,2.43,1.771,4.23
		c0,1.829-0.54,3.27-1.56,4.319c-1.381,1.47-3.63,2.22-6.181,2.22c-0.779,0-1.499-0.029-2.1-0.18v8.1h-2.609V138.023z M60.4,147.773
		c0.57,0.149,1.29,0.21,2.16,0.21c3.149,0,5.069-1.53,5.069-4.32c0-2.67-1.89-3.959-4.77-3.959c-1.14,0-2.01,0.09-2.46,0.21V147.773
		z"/>
	<path d="M85.36,154.043c0,1.5,0.029,2.82,0.119,3.96h-2.34l-0.149-2.37H82.93c-0.689,1.17-2.22,2.7-4.8,2.7
		c-2.279,0-5.01-1.26-5.01-6.359v-8.49h2.641v8.04c0,2.76,0.84,4.619,3.239,4.619c1.771,0,3-1.229,3.48-2.399
		c0.149-0.39,0.239-0.87,0.239-1.35v-8.91h2.641V154.043z"/>
	<path d="M89.74,136.704h2.641v21.299H89.74V136.704z"/>
	<path d="M96.46,155.303c0.78,0.511,2.16,1.05,3.479,1.05c1.92,0,2.82-0.96,2.82-2.159c0-1.26-0.75-1.95-2.7-2.67
		c-2.609-0.931-3.84-2.37-3.84-4.11c0-2.34,1.89-4.26,5.01-4.26c1.47,0,2.76,0.42,3.57,0.9l-0.66,1.92
		c-0.57-0.36-1.62-0.84-2.97-0.84c-1.561,0-2.431,0.899-2.431,1.979c0,1.2,0.87,1.74,2.761,2.46c2.52,0.96,3.81,2.22,3.81,4.38
		c0,2.55-1.98,4.35-5.43,4.35c-1.59,0-3.061-0.39-4.08-0.99L96.46,155.303z"/>
	<path d="M116.739,158.003l-0.21-1.83h-0.09c-0.81,1.14-2.37,2.16-4.439,2.16c-2.94,0-4.44-2.07-4.44-4.17
		c0-3.51,3.12-5.43,8.729-5.399v-0.301c0-1.199-0.33-3.359-3.3-3.359c-1.35,0-2.76,0.42-3.779,1.08l-0.601-1.74
		c1.2-0.78,2.94-1.29,4.771-1.29c4.439,0,5.52,3.03,5.52,5.94v5.43c0,1.26,0.06,2.489,0.24,3.479H116.739z M116.35,150.593
		c-2.88-0.06-6.15,0.45-6.15,3.271c0,1.71,1.141,2.52,2.49,2.52c1.89,0,3.09-1.2,3.51-2.43c0.09-0.271,0.15-0.57,0.15-0.84V150.593z
		"/>
</g>
<g>
	<path fill="#F7981F" d="M140.599,53.003c0,28.168-22.842,50.998-51.002,50.998c-28.19,0-50.998-22.83-50.998-50.998
		C38.599,24.862,61.406,2,89.597,2C117.757,2,140.599,24.862,140.599,53.003z"/>
	<g>
		<g>
			<defs>
				<polygon id="SVGID_1_" points="105.876,31.824 110.575,31.638 110.516,16.198 68.589,18.088 68.402,89.736 111.826,90.304 
					110.516,58.733 101.679,60.812 87.58,69.511 80.435,31.89 				"/>
			</defs>
			<clipPath id="SVGID_2_">
				<use xlink:href="#SVGID_1_"  overflow="visible"/>
			</clipPath>
			<path clip-path="url(#SVGID_2_)" fill="#FFFFFF" d="M109.738,32.522v-9.044c0-2.887-2.338-5.24-5.217-5.24H74.716
				c-2.873,0-5.211,2.354-5.211,5.24v60.919c0,2.889,2.338,5.239,5.211,5.239h29.806c2.879,0,5.217-2.351,5.217-5.239V57.507h21.301
				V32.522H109.738z M93.173,21.804h1.182c0.652,0,1.188,0.538,1.188,1.192c0,0.657-0.536,1.192-1.188,1.192h-1.182
				c-0.651,0-1.187-0.535-1.187-1.192C91.986,22.342,92.521,21.804,93.173,21.804L93.173,21.804z M84.883,21.804h4.741
				c0.651,0,1.176,0.538,1.176,1.192c0,0.657-0.524,1.192-1.176,1.192h-4.741c-0.65,0-1.174-0.535-1.174-1.192
				C83.709,22.342,84.232,21.804,84.883,21.804L84.883,21.804z M89.624,86.068c-2.615,0-4.741-2.14-4.741-4.764
				c0-2.621,2.126-4.756,4.741-4.756c2.604,0,4.73,2.135,4.73,4.756C94.354,83.929,92.228,86.068,89.624,86.068L89.624,86.068z
				 M107.373,72.978H71.875V27.752h35.498v4.771H86.069v24.984h4.73v8.33l11.05-8.33h5.523V72.978z M123.422,50.124H93.419
				c-0.694,0-1.247-2.623-1.247-5.811c0-3.22,0.553-5.834,1.247-5.834h30.003c0.69,0,1.252,2.614,1.252,5.834
				C124.674,47.501,124.112,50.124,123.422,50.124L123.422,50.124z M122.756,49.178"/>
		</g>
		<rect x="107.365" y="29.007" fill="#FFFFFF" width="2.373" height="44.566"/>
		<g>
			<ellipse fill="#FFFFFF" cx="108.292" cy="51.738" rx="16.792" ry="16.888"/>
			<g>
				<path fill="#F7981F" d="M98.717,42.969c0.978-0.201,2.376-0.315,3.714-0.315c2.069,0,3.405,0.381,4.341,1.229
					c0.762,0.675,1.184,1.707,1.184,2.872c0,1.99-1.252,3.313-2.827,3.854v0.061c1.159,0.401,1.844,1.475,2.201,3.046
					c0.488,2.107,0.846,3.563,1.161,4.137h-2.01c-0.241-0.423-0.572-1.718-0.998-3.604c-0.445-2.079-1.243-2.867-3.012-2.928h-1.82
					v6.532h-1.934V42.969z"/>
				<path fill="#FFFFFF" d="M100.65,49.842h1.979c2.073,0,3.388-1.145,3.388-2.865c0-1.947-1.401-2.8-3.449-2.821
					c-0.938,0-1.603,0.084-1.917,0.179V49.842z"/>
				<path fill="#F7981F" d="M110.854,50.56c0-1.39-0.045-2.508-0.1-3.543h1.762l0.091,1.861h0.05
					c0.799-1.316,2.066-2.106,3.824-2.106c2.603,0,4.563,2.217,4.563,5.507c0,3.896-2.356,5.823-4.895,5.823
					c-1.427,0-2.669-0.624-3.322-1.703h-0.044v5.893h-1.93V50.56z"/>
				<path fill="#FFFFFF" d="M112.783,53.438c0,0.298,0.044,0.569,0.091,0.81c0.357,1.367,1.538,2.31,2.943,2.31
					c2.066,0,3.266-1.698,3.266-4.185c0-2.173-1.129-4.032-3.196-4.032c-1.34,0-2.591,0.96-2.965,2.444
					c-0.067,0.243-0.139,0.535-0.139,0.801V53.438z"/>
			</g>
		</g>
	</g>
</g>
</svg>
